<svg width="197" height="51" viewBox="0 0 197 51" fill="none" xmlns="http://www.w3.org/2000/svg">
<path d="M0.125537 49.2227L9.64554 0.222653L16.7155 0.222653L28.6505 31.6177L40.5855 0.222653L47.6555 0.222653L57.1755 49.2227L48.4605 49.2227L42.5805 18.9127L31.5555 48.1027L25.7105 48.1027L14.6855 18.9127L8.84054 49.2227L0.125537 49.2227ZM64.1783 14.2227L72.7183 14.2227L72.7183 49.2227L64.1783 49.2227L64.1783 14.2227ZM68.5183 9.70765C67.2583 9.70765 66.1966 9.29932 65.3333 8.48266C64.4699 7.64265 64.0383 6.59265 64.0383 5.33265C64.0383 4.09599 64.4699 3.05765 65.3333 2.21765C66.1966 1.37765 67.2466 0.957654 68.4833 0.957654C69.7199 0.957654 70.7583 1.37765 71.5983 2.21765C72.4616 3.05765 72.8933 4.09599 72.8933 5.33265C72.8933 6.59265 72.4733 7.64265 71.6333 8.48266C70.7933 9.29932 69.7549 9.70765 68.5183 9.70765ZM90.9095 49.8527C89.0895 49.736 87.3279 49.3743 85.6245 48.7677C83.9445 48.1377 82.4512 47.286 81.1445 46.2127C79.8379 45.1393 78.8345 43.856 78.1345 42.3627L85.3445 39.2827C85.6245 39.7493 86.0795 40.251 86.7095 40.7877C87.3395 41.301 88.0862 41.7327 88.9495 42.0827C89.8362 42.4327 90.8045 42.6077 91.8545 42.6077C92.7412 42.6077 93.5812 42.491 94.3745 42.2577C95.1912 42.001 95.8445 41.616 96.3345 41.1027C96.8479 40.5893 97.1045 39.9243 97.1045 39.1077C97.1045 38.2443 96.8012 37.5793 96.1945 37.1127C95.6112 36.6227 94.8645 36.261 93.9545 36.0277C93.0679 35.771 92.2045 35.5377 91.3645 35.3277C89.1479 34.8843 87.0829 34.196 85.1695 33.2627C83.2795 32.3293 81.7512 31.1277 80.5845 29.6577C79.4412 28.1643 78.8695 26.3677 78.8695 24.2677C78.8695 21.9577 79.4762 19.9627 80.6895 18.2827C81.9262 16.6027 83.5245 15.3077 85.4845 14.3977C87.4679 13.4877 89.6029 13.0327 91.8895 13.0327C94.6662 13.0327 97.2095 13.616 99.5195 14.7827C101.853 15.926 103.696 17.5477 105.05 19.6477L98.2945 23.6377C97.9679 23.0777 97.5129 22.5643 96.9295 22.0977C96.3462 21.6077 95.6812 21.211 94.9345 20.9077C94.1879 20.581 93.4062 20.3943 92.5895 20.3477C91.5395 20.301 90.5829 20.3943 89.7195 20.6277C88.8562 20.861 88.1562 21.2577 87.6195 21.8177C87.1062 22.3777 86.8495 23.1243 86.8495 24.0577C86.8495 24.9443 87.1995 25.6093 87.8995 26.0527C88.5995 26.4727 89.4395 26.7993 90.4195 27.0327C91.4229 27.266 92.3795 27.5227 93.2895 27.8027C95.3429 28.4793 97.2679 29.3077 99.0645 30.2877C100.885 31.2677 102.343 32.4693 103.44 33.8927C104.536 35.316 105.061 37.0193 105.015 39.0027C105.015 41.266 104.338 43.2493 102.985 44.9527C101.631 46.6327 99.8812 47.916 97.7345 48.8027C95.6112 49.6893 93.3362 50.0393 90.9095 49.8527ZM110.184 14.2227L118.724 14.2227L118.724 49.2227L110.184 49.2227L110.184 14.2227ZM114.524 9.70765C113.264 9.70765 112.202 9.29932 111.339 8.48266C110.476 7.64265 110.044 6.59265 110.044 5.33265C110.044 4.09599 110.476 3.05765 111.339 2.21765C112.202 1.37765 113.252 0.957654 114.489 0.957654C115.726 0.957654 116.764 1.37765 117.604 2.21765C118.467 3.05765 118.899 4.09599 118.899 5.33265C118.899 6.59265 118.479 7.64265 117.639 8.48266C116.799 9.29932 115.761 9.70765 114.524 9.70765ZM141.717 50.1327C138.497 50.1327 135.557 49.3043 132.897 47.6477C130.26 45.991 128.149 43.7743 126.562 40.9977C124.999 38.1977 124.217 35.106 124.217 31.7227C124.217 29.156 124.672 26.7643 125.582 24.5477C126.492 22.3077 127.74 20.3477 129.327 18.6677C130.937 16.9643 132.804 15.6343 134.927 14.6777C137.05 13.721 139.314 13.2427 141.717 13.2427C144.937 13.2427 147.865 14.071 150.502 15.7277C153.162 17.3843 155.274 19.6127 156.837 22.4127C158.424 25.2127 159.217 28.316 159.217 31.7227C159.217 34.266 158.762 36.646 157.852 38.8627C156.942 41.0793 155.682 43.0393 154.072 44.7427C152.485 46.4227 150.63 47.741 148.507 48.6977C146.407 49.6543 144.144 50.1327 141.717 50.1327ZM141.717 41.5927C143.42 41.5927 144.949 41.1377 146.302 40.2277C147.655 39.3177 148.717 38.116 149.487 36.6227C150.28 35.1293 150.677 33.496 150.677 31.7227C150.677 29.9027 150.269 28.246 149.452 26.7527C148.659 25.236 147.574 24.0343 146.197 23.1477C144.844 22.2377 143.35 21.7827 141.717 21.7827C140.037 21.7827 138.52 22.2377 137.167 23.1477C135.814 24.0577 134.74 25.271 133.947 26.7877C133.154 28.3043 132.757 29.9493 132.757 31.7227C132.757 33.566 133.165 35.2343 133.982 36.7277C134.799 38.221 135.884 39.411 137.237 40.2977C138.614 41.161 140.107 41.5927 141.717 41.5927ZM139.512 10.3727L142.312 0.292652L150.852 0.292652L145.182 10.3727L139.512 10.3727ZM196.727 27.1027L196.727 49.2227L188.187 49.2227L188.187 29.3427C188.187 27.966 187.848 26.7177 187.172 25.5977C186.495 24.4543 185.585 23.556 184.442 22.9027C183.322 22.226 182.073 21.8877 180.697 21.8877C179.32 21.8877 178.06 22.226 176.917 22.9027C175.797 23.556 174.898 24.4543 174.222 25.5977C173.568 26.7177 173.242 27.966 173.242 29.3427L173.242 49.2227L164.702 49.2227L164.667 14.2227L173.207 14.2227L173.242 17.3377C174.432 16.0777 175.855 15.086 177.512 14.3627C179.168 13.616 180.953 13.2427 182.867 13.2427C185.41 13.2427 187.732 13.8727 189.832 15.1327C191.932 16.3693 193.6 18.0377 194.837 20.1377C196.097 22.2143 196.727 24.536 196.727 27.1027Z" fill="white"/>
</svg>
