<svg width="184" height="51" viewBox="0 0 184 51" fill="none" xmlns="http://www.w3.org/2000/svg">
<path d="M18.5405 49.2227L0.760537 0.222653L9.82554 0.222653L24.0005 39.2477L38.2105 0.222653L47.2405 0.222653L29.4605 49.2227L18.5405 49.2227ZM51.3443 14.2227L59.8843 14.2227L59.8843 49.2227L51.3443 49.2227L51.3443 14.2227ZM55.6843 9.70765C54.4243 9.70765 53.3626 9.29932 52.4993 8.48266C51.636 7.64265 51.2043 6.59265 51.2043 5.33265C51.2043 4.09599 51.636 3.05765 52.4993 2.21765C53.3626 1.37765 54.4126 0.957654 55.6493 0.957654C56.886 0.957654 57.9243 1.37765 58.7643 2.21765C59.6276 3.05765 60.0593 4.09599 60.0593 5.33265C60.0593 6.59265 59.6393 7.64265 58.7993 8.48266C57.9593 9.29932 56.921 9.70765 55.6843 9.70765ZM78.0755 49.8527C76.2555 49.736 74.4939 49.3743 72.7905 48.7677C71.1105 48.1377 69.6172 47.286 68.3105 46.2127C67.0039 45.1393 66.0005 43.856 65.3005 42.3627L72.5105 39.2827C72.7905 39.7493 73.2455 40.251 73.8755 40.7877C74.5055 41.301 75.2522 41.7327 76.1155 42.0827C77.0022 42.4327 77.9705 42.6077 79.0205 42.6077C79.9072 42.6077 80.7472 42.491 81.5405 42.2577C82.3572 42.001 83.0105 41.616 83.5005 41.1027C84.0139 40.5893 84.2705 39.9243 84.2705 39.1077C84.2705 38.2443 83.9672 37.5793 83.3605 37.1127C82.7772 36.6227 82.0305 36.261 81.1205 36.0277C80.2339 35.771 79.3705 35.5377 78.5305 35.3277C76.3139 34.8843 74.2489 34.196 72.3355 33.2627C70.4455 32.3293 68.9172 31.1277 67.7505 29.6577C66.6072 28.1643 66.0355 26.3677 66.0355 24.2677C66.0355 21.9577 66.6422 19.9627 67.8555 18.2827C69.0922 16.6027 70.6905 15.3077 72.6505 14.3977C74.6339 13.4877 76.7689 13.0327 79.0555 13.0327C81.8322 13.0327 84.3755 13.616 86.6855 14.7827C89.0189 15.926 90.8622 17.5477 92.2155 19.6477L85.4605 23.6377C85.1339 23.0777 84.6789 22.5643 84.0955 22.0977C83.5122 21.6077 82.8472 21.211 82.1005 20.9077C81.3539 20.581 80.5722 20.3943 79.7555 20.3477C78.7055 20.301 77.7489 20.3943 76.8855 20.6277C76.0222 20.861 75.3222 21.2577 74.7855 21.8177C74.2722 22.3777 74.0155 23.1243 74.0155 24.0577C74.0155 24.9443 74.3655 25.6093 75.0655 26.0527C75.7655 26.4727 76.6055 26.7993 77.5855 27.0327C78.5889 27.266 79.5455 27.5227 80.4555 27.8027C82.5089 28.4793 84.4339 29.3077 86.2305 30.2877C88.0505 31.2677 89.5089 32.4693 90.6055 33.8927C91.7022 35.316 92.2272 37.0193 92.1805 39.0027C92.1805 41.266 91.5039 43.2493 90.1505 44.9527C88.7972 46.6327 87.0472 47.916 84.9005 48.8027C82.7772 49.6893 80.5022 50.0393 78.0755 49.8527ZM97.3501 14.2227L105.89 14.2227L105.89 49.2227L97.3501 49.2227L97.3501 14.2227ZM101.69 9.70765C100.43 9.70765 99.3685 9.29932 98.5051 8.48266C97.6418 7.64265 97.2101 6.59265 97.2101 5.33265C97.2101 4.09599 97.6418 3.05765 98.5051 2.21765C99.3685 1.37765 100.418 0.957654 101.655 0.957654C102.892 0.957654 103.93 1.37765 104.77 2.21765C105.633 3.05765 106.065 4.09599 106.065 5.33265C106.065 6.59265 105.645 7.64265 104.805 8.48266C103.965 9.29932 102.927 9.70765 101.69 9.70765ZM128.883 50.1327C125.663 50.1327 122.723 49.3043 120.063 47.6477C117.426 45.991 115.315 43.7743 113.728 40.9977C112.165 38.1977 111.383 35.106 111.383 31.7227C111.383 29.156 111.838 26.7643 112.748 24.5477C113.658 22.3077 114.906 20.3477 116.493 18.6677C118.103 16.9643 119.97 15.6343 122.093 14.6777C124.216 13.721 126.48 13.2427 128.883 13.2427C132.103 13.2427 135.031 14.071 137.668 15.7277C140.328 17.3843 142.44 19.6127 144.003 22.4127C145.59 25.2127 146.383 28.316 146.383 31.7227C146.383 34.266 145.928 36.646 145.018 38.8627C144.108 41.0793 142.848 43.0393 141.238 44.7427C139.651 46.4227 137.796 47.741 135.673 48.6977C133.573 49.6543 131.31 50.1327 128.883 50.1327ZM128.883 41.5927C130.586 41.5927 132.115 41.1377 133.468 40.2277C134.821 39.3177 135.883 38.116 136.653 36.6227C137.446 35.1293 137.843 33.496 137.843 31.7227C137.843 29.9027 137.435 28.246 136.618 26.7527C135.825 25.236 134.74 24.0343 133.363 23.1477C132.01 22.2377 130.516 21.7827 128.883 21.7827C127.203 21.7827 125.686 22.2377 124.333 23.1477C122.98 24.0577 121.906 25.271 121.113 26.7877C120.32 28.3043 119.923 29.9493 119.923 31.7227C119.923 33.566 120.331 35.2343 121.148 36.7277C121.965 38.221 123.05 39.411 124.403 40.2977C125.78 41.161 127.273 41.5927 128.883 41.5927ZM126.678 10.3727L129.478 0.292652L138.018 0.292652L132.348 10.3727L126.678 10.3727ZM183.893 27.1027L183.893 49.2227L175.353 49.2227L175.353 29.3427C175.353 27.966 175.014 26.7177 174.338 25.5977C173.661 24.4543 172.751 23.556 171.608 22.9027C170.488 22.226 169.239 21.8877 167.863 21.8877C166.486 21.8877 165.226 22.226 164.083 22.9027C162.963 23.556 162.064 24.4543 161.388 25.5977C160.734 26.7177 160.408 27.966 160.408 29.3427L160.408 49.2227L151.868 49.2227L151.833 14.2227L160.373 14.2227L160.408 17.3377C161.598 16.0777 163.021 15.086 164.678 14.3627C166.334 13.616 168.119 13.2427 170.033 13.2427C172.576 13.2427 174.898 13.8727 176.998 15.1327C179.098 16.3693 180.766 18.0377 182.003 20.1377C183.263 22.2143 183.893 24.536 183.893 27.1027Z" fill="white"/>
</svg>
